# Blender v2.79 (sub 0) OBJ File: 'Arvore.blend'
# www.blender.org
mtllib Arvore.mtl
o Cube
v -0.491099 0.034534 0.478445
v -0.492682 0.034534 -0.493518
v 0.476989 0.034534 0.475543
v 0.479937 0.034534 -0.482970
v -0.387125 0.034534 -0.004607
v -0.215063 1.753202 0.216886
v -0.215063 1.753202 -0.227134
v 0.006956 0.034534 -0.402367
v 0.228958 1.753202 -0.227134
v 0.401038 0.034534 -0.004607
v 0.215920 1.753202 0.187825
v 0.006956 0.034534 0.393152
v 0.006947 0.034534 -0.005124
v 0.006947 1.753202 0.273152
v 0.250574 1.753202 -0.005124
v 0.006947 1.753202 -0.319094
v -0.307023 1.753202 -0.005124
v -0.387125 0.034534 0.194272
v -0.246802 0.284534 -0.258874
v -0.190084 0.034534 -0.402367
v 0.260697 0.284534 -0.258874
v 0.401038 0.034534 -0.203487
v 0.247660 0.284534 0.219564
v 0.203997 0.034534 0.393152
v -0.387125 0.034534 -0.203487
v -0.246802 0.284534 0.248626
v 0.203997 0.034534 -0.402367
v 0.401038 0.034534 0.194272
v -0.190084 0.034534 0.393152
v 0.006956 0.034534 0.194272
v 0.006947 0.034534 -0.207190
v -0.193250 0.034534 -0.005124
v 0.207145 0.034534 -0.005124
v -0.113204 1.753202 0.284946
v 0.127098 1.753202 0.284946
v 0.006947 0.284534 0.318039
v 0.297018 1.753202 0.115027
v 0.269884 1.753202 -0.117221
v 0.295461 0.284534 -0.005124
v 0.127098 1.753202 -0.260202
v -0.085645 1.753202 -0.277209
v 0.006947 0.284534 -0.363980
v -0.255551 1.753202 -0.089841
v -0.273512 1.753202 0.115027
v -0.351909 0.284534 -0.005124
v -0.314982 0.284534 0.132204
v -0.297021 0.284534 -0.107018
v -0.102822 0.284534 -0.318678
v 0.144276 0.284534 -0.301672
v 0.311354 0.284534 -0.134398
v 0.338487 0.284534 0.132204
v 0.144276 0.284534 0.326416
v -0.130381 0.284534 0.326416
v 0.207145 0.034534 -0.207190
v -0.193250 0.034534 -0.207190
v -0.190084 0.034534 0.194272
v 0.203997 0.034534 0.194272
v -0.345707 2.553846 0.347530
v -0.345707 2.553846 -0.357778
v 0.359602 2.553846 -0.357778
v 0.359602 2.553846 0.347530
v 0.006947 2.553846 0.488296
v 0.406869 2.553846 -0.005124
v 0.006947 2.553846 -0.407851
v -0.473378 2.553846 -0.005124
v -0.183908 2.553846 0.824650
v 0.197802 2.553846 0.824650
v 0.802789 2.553846 0.185731
v 0.804452 2.553846 -0.220107
v 0.197802 2.553846 -0.721064
v -0.183908 2.553846 -0.760255
v -0.821852 2.553846 -0.195979
v -0.821852 2.553846 0.185731
v -0.227958 2.893692 0.041165
v -0.595065 3.289675 0.522093
v -0.052488 3.069983 -0.165330
v -0.513931 3.237272 -0.572412
v 0.205283 3.012799 0.013539
v 0.470475 3.221421 -0.596916
v -0.041147 3.006543 0.341662
v 0.475723 3.224668 0.516479
v -0.066110 3.215317 0.022546
vt 0.222368 0.160016
vt 0.220211 0.147494
vt 0.229031 0.148683
vt 0.234756 0.157146
vt 0.227789 0.187010
vt 0.225310 0.173375
vt 0.239971 0.170636
vt 0.240558 0.184945
vt 0.200169 0.192498
vt 0.197390 0.178789
vt 0.211436 0.176148
vt 0.214158 0.190164
vt 0.195153 0.165112
vt 0.192678 0.153216
vt 0.205893 0.148193
vt 0.208728 0.162225
vt 0.280664 0.189750
vt 0.075439 0.149722
vt 0.100131 0.102859
vt 0.272873 0.217825
vt 0.269391 0.136522
vt 0.096330 0.251782
vt 0.081034 0.201788
vt 0.280093 0.162030
vt 0.225696 0.106333
vt 0.181841 0.311472
vt 0.142795 0.290266
vt 0.249211 0.111381
vt 0.171719 0.116467
vt 0.286568 0.291678
vt 0.240566 0.305902
vt 0.194798 0.106035
vt 0.141369 0.156383
vt 0.339643 0.217634
vt 0.325986 0.259648
vt 0.151508 0.135187
vt 0.147709 0.209289
vt 0.328568 0.119845
vt 0.345858 0.155254
vt 0.143648 0.189018
vt 0.204970 0.248553
vt 0.223113 0.048187
vt 0.287743 0.069631
vt 0.170096 0.236301
vt 0.252723 0.236394
vt 0.138114 0.071716
vt 0.185503 0.045269
vt 0.224362 0.244822
vt 0.230725 0.199526
vt 0.216945 0.204522
vt 0.239169 0.194578
vt 0.202351 0.204960
vt 0.192519 0.203410
vt 0.187701 0.194910
vt 0.183024 0.181343
vt 0.183132 0.167049
vt 0.184514 0.157924
vt 0.390757 0.902841
vt 0.305046 0.836630
vt 0.226878 0.758029
vt 0.367073 0.782967
vt 0.429594 0.485182
vt 0.512516 0.476719
vt 0.506636 0.558533
vt 0.448492 0.566233
vt 0.700664 0.834894
vt 0.614590 0.905648
vt 0.642472 0.799887
vt 0.786718 0.784117
vt 0.595007 0.489549
vt 0.671323 0.525070
vt 0.640425 0.579887
vt 0.565686 0.567947
vt 0.499879 0.917042
vt 0.504612 0.798570
vt 0.250855 0.754105
vt 0.255525 0.658042
vt 0.217602 0.646913
vt 0.029392 0.678722
vt 0.352744 0.518135
vt 0.373841 0.568160
vt 0.287051 0.568757
vt 0.313348 0.609229
vt 0.734446 0.577911
vt 0.760998 0.661007
vt 0.789860 0.672284
vt 0.700531 0.626938
vt 0.760998 0.748632
vt 0.978420 0.727634
vt 0.348437 0.720843
vt 0.410727 0.609860
vt 0.352580 0.632177
vt 0.669496 0.737760
vt 0.493642 0.708324
vt 0.636002 0.652891
vt 0.596524 0.621159
vt 0.499183 0.613277
vt 0.482984 0.660044
vn 0.0000 -1.0000 0.0000
vn -0.5553 0.0300 0.8311
vn -0.0781 0.0288 0.9965
vn 0.6813 0.0292 0.7314
vn 0.9891 0.0282 0.1443
vn 0.3282 0.0290 -0.9442
vn -0.3955 0.0293 -0.9180
vn -0.9538 0.0288 -0.2992
vn -0.9641 0.0299 0.2638
vn -0.9693 0.2215 0.1065
vn -0.8622 0.5007 -0.0770
vn -0.8646 0.0299 0.5016
vn -0.8567 0.5046 0.1073
vn -0.9471 0.2705 -0.1728
vn -0.8684 0.0284 -0.4950
vn -0.1411 0.2580 -0.9558
vn 0.0603 0.5072 -0.8597
vn -0.3728 0.0293 -0.9275
vn -0.0825 0.5101 -0.8561
vn 0.1757 0.2832 -0.9428
vn 0.4257 0.0291 -0.9044
vn 0.9326 0.3580 0.0452
vn 0.8646 0.4988 0.0605
vn 0.9310 0.0293 -0.3638
vn 0.8534 0.5201 0.0344
vn 0.9454 0.3027 -0.1210
vn 0.9443 0.0258 -0.3281
vn -0.0241 0.2702 0.9625
vn 0.0536 0.5632 0.8246
vn 0.7275 0.0292 0.6855
vn 0.0155 0.5031 0.8641
vn 0.0241 0.2702 0.9625
vn 0.0781 0.0288 0.9965
vn -0.7991 -0.3113 -0.5142
vn 0.7179 -0.2706 0.6413
vn 0.7954 -0.2955 -0.5291
vn 0.8785 -0.2851 0.3834
vn 0.7249 -0.1918 -0.6617
vn -0.6579 -0.2540 0.7090
vn -0.8634 -0.2834 0.4175
vn -0.4236 -0.2876 0.8590
vn -0.7179 -0.2706 0.6413
vn 0.5638 -0.1977 -0.8019
vn -0.4735 -0.3270 -0.8179
vn 0.4327 -0.3035 -0.8489
vn -0.6762 -0.2716 -0.6848
vn 0.3915 -0.2847 0.8750
vn 0.6034 -0.2109 0.7691
vn -0.6159 -0.2313 -0.7531
vn -0.8770 -0.3266 -0.3525
vn -0.4528 0.4686 -0.7585
vn 0.8756 -0.2851 -0.3900
vn 0.7300 0.4281 -0.5327
vn 0.6156 0.4891 0.6179
vn -0.8802 -0.3691 0.2985
vn -0.6144 0.4008 0.6796
vn -0.3011 -0.3524 -0.8861
vn -0.5548 0.5117 0.6561
vn -0.3052 -0.3165 0.8982
vn 0.6163 0.4754 0.6278
vn 0.9199 -0.2378 0.3119
vn 0.5592 0.4724 -0.6813
vn 0.3288 -0.2838 0.9007
vn 0.2753 -0.3644 -0.8896
vn -0.7155 0.3211 -0.6205
vn 0.4883 0.6788 -0.5485
vn 0.5372 0.6989 0.4722
vn -0.6020 0.6099 -0.5154
vn 0.6265 0.6378 -0.4480
vn -0.7259 0.3978 0.5611
vn -0.6382 0.2796 -0.7173
vn 0.5182 0.7337 0.4395
vn -0.4750 0.7189 0.5075
usemtl Material
s off
f 57/1/1 28/2/1 3/3/1 24/4/1
f 56/5/1 30/6/1 12/7/1 29/8/1
f 55/9/1 31/10/1 13/11/1 32/12/1
f 54/13/1 22/14/1 10/15/1 33/16/1
f 53/17/2 34/18/2 6/19/2 26/20/2
f 52/21/3 35/22/3 14/23/3 36/24/3
f 51/25/4 37/26/4 11/27/4 23/28/4
f 50/29/5 38/30/5 15/31/5 39/32/5
f 49/33/6 40/34/6 9/35/6 21/36/6
f 48/37/7 41/38/7 16/39/7 42/40/7
f 47/41/8 43/42/8 7/43/8 19/44/8
f 46/45/9 44/46/9 17/47/9 45/48/9
f 18/49/10 46/45/10 45/48/10 5/50/10
f 1/51/11 26/20/11 46/45/11 18/49/11
f 26/20/12 6/19/12 44/46/12 46/45/12
f 25/52/13 47/41/13 19/44/13 2/53/13
f 5/50/14 45/48/14 47/41/14 25/52/14
f 45/48/15 17/47/15 43/42/15 47/41/15
f 20/54/16 48/37/16 42/40/16 8/55/16
f 2/53/17 19/44/17 48/37/17 20/54/17
f 19/44/18 7/43/18 41/38/18 48/37/18
f 27/56/19 49/33/19 21/36/19 4/57/19
f 8/55/20 42/40/20 49/33/20 27/56/20
f 42/40/21 16/39/21 40/34/21 49/33/21
f 22/14/22 50/29/22 39/32/22 10/15/22
f 4/57/23 21/36/23 50/29/23 22/14/23
f 21/36/24 9/35/24 38/30/24 50/29/24
f 28/2/25 51/25/25 23/28/25 3/3/25
f 10/15/26 39/32/26 51/25/26 28/2/26
f 39/32/27 15/31/27 37/26/27 51/25/27
f 24/4/28 52/21/28 36/24/28 12/7/28
f 3/3/29 23/28/29 52/21/29 24/4/29
f 23/28/30 11/27/30 35/22/30 52/21/30
f 29/8/31 53/17/31 26/20/31 1/51/31
f 12/7/32 36/24/32 53/17/32 29/8/32
f 36/24/33 14/23/33 34/18/33 53/17/33
f 31/10/1 54/13/1 33/16/1 13/11/1
f 8/55/1 27/56/1 54/13/1 31/10/1
f 27/56/1 4/57/1 22/14/1 54/13/1
f 25/52/1 55/9/1 32/12/1 5/50/1
f 2/53/1 20/54/1 55/9/1 25/52/1
f 20/54/1 8/55/1 31/10/1 55/9/1
f 18/49/1 56/5/1 29/8/1 1/51/1
f 5/50/1 32/12/1 56/5/1 18/49/1
f 32/12/1 13/11/1 30/6/1 56/5/1
f 30/6/1 57/1/1 24/4/1 12/7/1
f 13/11/1 33/16/1 57/1/1 30/6/1
f 33/16/1 10/15/1 28/2/1 57/1/1
f 41/58/34 7/59/34 59/60/34 71/61/34
f 34/62/35 14/63/35 62/64/35 66/65/35
f 9/66/36 40/67/36 70/68/36 60/69/36
f 35/70/37 11/71/37 61/72/37 67/73/37
f 16/74/38 41/58/38 71/61/38 64/75/38
f 43/76/39 17/77/39 65/78/39 72/79/39
f 6/80/40 34/62/40 66/65/40 58/81/40
f 44/82/41 6/80/41 58/81/41 73/83/41
f 14/63/42 35/70/42 67/73/42 62/64/42
f 37/84/43 15/85/43 63/86/43 68/87/43
f 7/59/44 43/76/44 72/79/44 59/60/44
f 38/88/45 9/66/45 60/69/45 69/89/45
f 17/77/46 44/82/46 73/83/46 65/78/46
f 11/71/47 37/84/47 68/87/47 61/72/47
f 15/85/48 38/88/48 69/89/48 63/86/48
f 40/67/49 16/74/49 64/75/49 70/68/49
f 71/61/50 59/60/50 77/90/50
f 73/83/51 75/91/51 74/92/51 65/78/51
f 60/69/52 70/68/52 79/93/52
f 64/75/53 71/61/53 77/90/53 76/94/53
f 63/86/54 69/89/54 79/93/54 78/95/54
f 58/81/55 66/65/55 75/91/55
f 62/64/56 67/73/56 81/96/56 80/97/56
f 59/60/57 72/79/57 77/90/57
f 72/79/58 65/78/58 74/92/58 77/90/58
f 73/83/59 58/81/59 75/91/59
f 62/64/60 80/97/60 75/91/60 66/65/60
f 67/73/61 61/72/61 81/96/61
f 63/86/62 78/95/62 81/96/62 68/87/62
f 68/87/63 81/96/63 61/72/63
f 69/89/64 60/69/64 79/93/64
f 64/75/65 76/94/65 79/93/65 70/68/65
f 78/95/66 82/98/66 81/96/66
f 78/95/67 79/93/67 82/98/67
f 76/94/68 82/98/68 79/93/68
f 76/94/69 77/90/69 82/98/69
f 77/90/70 74/92/70 82/98/70
f 82/98/71 74/92/71 75/91/71
f 80/97/72 82/98/72 75/91/72
f 80/97/73 81/96/73 82/98/73
