# Blender v2.79 (sub 0) OBJ File: 'Espinhos.blend'
# www.blender.org
mtllib Espinhos.mtl
o Cube_Cube.001
v 0.029410 0.760198 -0.760198
v 0.029410 -0.760198 -0.760198
v 0.029410 0.760198 0.760198
v 0.029410 -0.760198 0.760198
v -0.163277 -0.860198 0.860198
v -0.163277 -0.860198 -0.860198
v -0.163277 0.860198 0.860198
v -0.163277 0.860198 -0.860198
v 0.029410 -0.760198 0.000000
v 0.029410 0.000000 0.760198
v 0.029410 0.760198 0.000000
v 0.029410 0.000000 -0.760198
v 0.345258 0.000000 0.000000
v 0.029410 -0.760198 -0.380099
v 0.029410 -0.380099 0.760198
v 0.029410 0.760198 0.380099
v 0.029410 -0.380099 -0.760198
v 0.029410 -0.760198 0.380099
v 0.029410 0.380099 0.760198
v 0.029410 0.760198 -0.380099
v 0.029410 0.380099 -0.760198
v 0.029410 0.000000 0.380099
v 0.029410 0.000000 -0.380099
v 0.029410 -0.380099 0.000000
v 0.029410 0.380099 0.000000
v 0.029410 0.380099 -0.380099
v 0.029410 -0.380099 -0.380099
v 0.029410 -0.380099 0.380099
v 0.029410 0.380099 0.380099
v 0.029410 -0.760198 -0.570149
v 0.029410 -0.570149 0.760198
v 0.029410 0.760198 0.570149
v 0.029410 -0.570149 -0.760198
v 0.029410 -0.760198 0.190050
v 0.029410 0.190050 0.760198
v 0.029410 0.760198 -0.190050
v 0.029410 0.190050 -0.760198
v 0.345258 0.000000 0.570149
v 0.029410 0.000000 -0.190050
v 0.345258 -0.570149 0.000000
v 0.029410 0.190050 0.000000
v 0.029410 -0.760198 -0.190050
v 0.029410 -0.190050 0.760198
v 0.029410 0.760198 0.190050
v 0.029410 -0.190050 -0.760198
v 0.029410 -0.760198 0.570149
v 0.029410 0.570149 0.760198
v 0.029410 0.760198 -0.570149
v 0.029410 0.570149 -0.760198
v 0.029410 0.000000 0.190050
v 0.345258 0.000000 -0.570149
v 0.029410 -0.190050 0.000000
v 0.345258 0.570149 0.000000
v 0.029410 0.380099 -0.190050
v 0.029410 0.380099 -0.570149
v 0.029410 0.190050 -0.380099
v 0.029410 0.570149 -0.380099
v 0.029410 -0.380099 -0.190050
v 0.029410 -0.380099 -0.570149
v 0.029410 -0.570149 -0.380099
v 0.029410 -0.190050 -0.380099
v 0.029410 -0.380099 0.570149
v 0.029410 -0.380099 0.190050
v 0.029410 -0.570149 0.380099
v 0.029410 -0.190050 0.380099
v 0.029410 0.380099 0.570149
v 0.029410 0.380099 0.190050
v 0.029410 0.190050 0.380099
v 0.029410 0.570149 0.380099
v 0.029410 0.570149 0.190050
v 0.029410 0.190050 0.190050
v 0.029410 0.190050 0.570149
v 0.029410 -0.190050 0.190050
v 0.029410 -0.570149 0.190050
v 0.345258 -0.570149 0.570149
v 0.029410 -0.190050 -0.570149
v 0.345258 -0.570149 -0.570149
v 0.029410 -0.570149 -0.190050
v 0.345258 0.570149 -0.570149
v 0.029410 0.190050 -0.570149
v 0.029410 0.190050 -0.190050
v 0.029410 0.570149 -0.190050
v 0.029410 -0.190050 -0.190050
v 0.029410 -0.190050 0.570149
v 0.345258 0.570149 0.570149
v -0.163277 -0.860198 0.000000
v -0.163277 0.000000 0.860198
v -0.163277 0.860198 0.000000
v -0.163277 0.000000 -0.860198
v -0.163277 -0.860198 -0.430099
v -0.163277 -0.430099 0.860198
v -0.163277 0.860198 0.430099
v -0.163277 -0.430099 -0.860198
v -0.163277 -0.860198 0.430099
v -0.163277 0.430099 0.860198
v -0.163277 0.860198 -0.430099
v -0.163277 0.430099 -0.860198
v -0.163277 -0.860198 -0.645149
v -0.163277 -0.645149 0.860198
v -0.163277 0.860198 0.645149
v -0.163277 -0.645149 -0.860198
v -0.163277 -0.860198 0.215050
v -0.163277 0.215050 0.860198
v -0.163277 0.860198 -0.215050
v -0.163277 0.215050 -0.860198
v -0.163277 -0.860198 -0.215050
v -0.163277 -0.215050 0.860198
v -0.163277 0.860198 0.215050
v -0.163277 -0.215050 -0.860198
v -0.163277 -0.860198 0.645149
v -0.163277 0.645149 0.860198
v -0.163277 0.860198 -0.645149
v -0.163277 0.645149 -0.860198
vt 0.182620 0.911511
vt 0.216406 0.877939
vt 0.215937 0.918631
vt 0.487478 0.608588
vt 0.454161 0.601467
vt 0.416139 0.603754
vt 0.374357 0.601387
vt 0.335018 0.596656
vt 0.295321 0.600781
vt 0.253274 0.600780
vt 0.214967 0.598066
vt 0.181008 0.605029
vt 0.146477 0.570278
vt 0.193354 0.556165
vt 0.242408 0.552399
vt 0.289988 0.552916
vt 0.335650 0.552398
vt 0.381371 0.554497
vt 0.428204 0.556004
vt 0.475950 0.560702
vt 0.521440 0.574841
vt 0.173830 0.638942
vt 0.176301 0.677266
vt 0.176035 0.719312
vt 0.171659 0.758981
vt 0.176140 0.798349
vt 0.178240 0.840144
vt 0.175712 0.878150
vt 0.148660 0.945257
vt 0.134810 0.899679
vt 0.130416 0.851905
vt 0.129207 0.805065
vt 0.127398 0.759333
vt 0.128206 0.713676
vt 0.127990 0.666094
vt 0.132067 0.617065
vt 0.253957 0.916344
vt 0.295739 0.918710
vt 0.335077 0.923441
vt 0.374773 0.919317
vt 0.416818 0.919319
vt 0.455125 0.922034
vt 0.489083 0.915072
vt 0.523611 0.949824
vt 0.476735 0.963934
vt 0.427682 0.967698
vt 0.380104 0.967180
vt 0.334444 0.967698
vt 0.288725 0.965599
vt 0.241893 0.964092
vt 0.194149 0.959395
vt 0.496262 0.881160
vt 0.493793 0.842836
vt 0.494060 0.800790
vt 0.498437 0.761120
vt 0.493957 0.721752
vt 0.491857 0.679956
vt 0.494386 0.641949
vt 0.535289 0.620421
vt 0.539682 0.668195
vt 0.540891 0.715037
vt 0.542698 0.760770
vt 0.541889 0.806428
vt 0.542103 0.854010
vt 0.538023 0.903039
vt 0.215155 0.759010
vt 0.334931 0.717977
vt 0.374262 0.721084
vt 0.335047 0.760050
vt 0.335325 0.879946
vt 0.373561 0.798810
vt 0.374764 0.840875
vt 0.335341 0.837742
vt 0.335164 0.802123
vt 0.455041 0.803558
vt 0.454937 0.839167
vt 0.416755 0.842280
vt 0.415618 0.800281
vt 0.454848 0.880618
vt 0.334754 0.682357
vt 0.334770 0.640153
vt 0.373094 0.679125
vt 0.412206 0.641602
vt 0.453691 0.642160
vt 0.414912 0.680693
vt 0.412736 0.760839
vt 0.416213 0.722520
vt 0.454940 0.761091
vt 0.215244 0.639483
vt 0.215156 0.680934
vt 0.292304 0.639782
vt 0.295331 0.679225
vt 0.253339 0.677820
vt 0.256696 0.639658
vt 0.296534 0.721290
vt 0.292976 0.759665
vt 0.257359 0.759261
vt 0.254477 0.719820
vt 0.215568 0.801059
vt 0.216112 0.836452
vt 0.295833 0.799015
vt 0.297002 0.840974
vt 0.255184 0.839407
vt 0.253883 0.797580
vt 0.293279 0.879266
vt 0.257891 0.878497
vt 0.453985 0.683648
vt 0.454528 0.719041
vt 0.376816 0.640833
vt 0.377119 0.760434
vt 0.377790 0.880317
vt 0.413398 0.880442
vt 0.215054 0.716543
vt 0.532400 0.596313
vt 0.532400 0.650026
vt 0.532400 0.703739
vt 0.532400 0.757452
vt 0.532400 0.811165
vt 0.532400 0.864878
vt 0.532400 0.918591
vt 0.532400 0.972304
vt 0.478687 0.972304
vt 0.424974 0.972304
vt 0.371261 0.972304
vt 0.317548 0.972304
vt 0.263835 0.972304
vt 0.210122 0.972304
vt 0.156409 0.972304
vt 0.102697 0.972304
vt 0.102697 0.918591
vt 0.102697 0.864878
vt 0.102697 0.811165
vt 0.102697 0.757451
vt 0.102697 0.703738
vt 0.102697 0.650025
vt 0.102697 0.596313
vt 0.102697 0.542600
vt 0.156410 0.542600
vt 0.210123 0.542600
vt 0.263836 0.542600
vt 0.317548 0.542601
vt 0.371261 0.542600
vt 0.424974 0.542600
vt 0.478687 0.542600
vt 0.532400 0.542600
vn 0.5156 0.8568 0.0000
vn 0.4606 -0.8876 0.0000
vn 0.4606 0.0000 0.8876
vn 0.4606 0.8876 0.0000
vn 0.4606 0.0000 -0.8876
vn 0.5156 0.0000 0.8568
vn 0.5156 -0.8568 0.0000
vn 1.0000 0.0000 0.0000
vn 0.5156 0.0000 -0.8568
vn -1.0000 0.0000 0.0000
usemtl None
s off
f 3/1/1 85/2/1 32/3/1
f 2/4/2 30/5/2 14/6/2 42/7/2 9/8/2 34/9/2 18/10/2 46/11/2 4/12/2 5/13/2 110/14/2 94/15/2 102/16/2 86/17/2 106/18/2 90/19/2 98/20/2 6/21/2
f 4/12/3 31/22/3 15/23/3 43/24/3 10/25/3 35/26/3 19/27/3 47/28/3 3/1/3 7/29/3 111/30/3 95/31/3 103/32/3 87/33/3 107/34/3 91/35/3 99/36/3 5/13/3
f 3/1/4 32/3/4 16/37/4 44/38/4 11/39/4 36/40/4 20/41/4 48/42/4 1/43/4 8/44/4 112/45/4 96/46/4 104/47/4 88/48/4 108/49/4 92/50/4 100/51/4 7/29/4
f 1/43/5 49/52/5 21/53/5 37/54/5 12/55/5 45/56/5 17/57/5 33/58/5 2/4/5 6/21/5 101/59/5 93/60/5 109/61/5 89/62/5 105/63/5 97/64/5 113/65/5 8/44/5
f 10/25/6 43/24/6 38/66/6
f 52/67/7 83/68/7 13/69/7
f 11/39/1 53/70/1 36/40/1
f 81/71/8 54/72/8 25/73/8 41/74/8
f 80/75/8 55/76/8 26/77/8 56/78/8
f 20/41/1 79/79/1 48/42/1
f 24/80/1 40/81/1 58/82/1
f 60/83/6 77/84/6 27/85/6
f 23/86/6 61/87/6 51/88/6
f 15/23/1 75/89/1 62/90/1
f 74/91/8 63/92/8 28/93/8 64/94/8
f 73/95/8 50/96/8 22/97/8 65/98/8
f 72/99/8 66/100/8 19/27/8 35/26/8
f 71/101/8 67/102/8 29/103/8 68/104/8
f 70/105/8 44/38/8 16/37/8 69/106/8
f 67/102/8 70/105/8 69/106/8 29/103/8
f 70/105/6 67/102/6 53/70/6
f 44/38/1 53/70/1 11/39/1
f 50/96/8 71/101/8 68/104/8 22/97/8
f 13/69/1 41/74/1 71/101/1
f 41/74/8 25/73/8 67/102/8 71/101/8
f 35/26/1 38/66/1 72/99/1
f 72/99/1 38/66/1 68/104/1
f 68/104/8 29/103/8 66/100/8 72/99/8
f 63/92/8 73/95/8 65/98/8 28/93/8
f 24/80/8 52/67/8 73/95/8 63/92/8
f 50/96/6 73/95/6 13/69/6
f 34/9/8 74/91/8 64/94/8 18/10/8
f 74/91/6 34/9/6 40/81/6
f 40/81/1 24/80/1 63/92/1
f 31/22/6 4/12/6 75/89/6
f 18/10/9 64/94/9 75/89/9
f 62/90/1 75/89/1 28/93/1
f 59/107/8 76/108/8 61/87/8 27/85/8
f 17/57/8 45/56/8 76/108/8 59/107/8
f 45/56/9 12/55/9 51/88/9
f 60/83/6 14/6/6 77/84/6
f 2/4/9 33/58/9 77/84/9
f 59/107/1 77/84/1 17/57/1
f 9/8/7 42/7/7 40/81/7
f 14/6/8 60/83/8 78/109/8 42/7/8
f 60/83/8 27/85/8 58/82/8 78/109/8
f 55/76/7 79/79/7 26/77/7
f 55/76/7 21/53/7 79/79/7
f 48/42/1 79/79/1 1/43/1
f 56/78/1 51/88/1 80/75/1
f 80/75/1 51/88/1 37/54/1
f 37/54/8 21/53/8 55/76/8 80/75/8
f 41/74/1 13/69/1 81/71/1
f 23/86/8 56/78/8 81/71/8 39/110/8
f 56/78/8 26/77/8 54/72/8 81/71/8
f 53/70/9 54/72/9 82/111/9
f 26/77/8 57/112/8 82/111/8 54/72/8
f 57/112/8 20/41/8 36/40/8 82/111/8
f 58/82/8 83/68/8 52/67/8 24/80/8
f 27/85/8 61/87/8 83/68/8 58/82/8
f 61/87/8 23/86/8 39/110/8 83/68/8
f 62/90/8 84/113/8 43/24/8 15/23/8
f 28/93/8 65/98/8 84/113/8 62/90/8
f 84/113/7 65/98/7 38/66/7
f 47/28/6 19/27/6 85/2/6
f 29/103/9 69/106/9 85/2/9
f 32/3/1 85/2/1 16/37/1
f 47/28/6 85/2/6 3/1/6
f 66/100/7 85/2/7 19/27/7
f 69/106/9 16/37/9 85/2/9
f 66/100/7 29/103/7 85/2/7
f 53/70/6 44/38/6 70/105/6
f 25/73/7 53/70/7 67/102/7
f 82/111/9 36/40/9 53/70/9
f 25/73/7 54/72/7 53/70/7
f 57/112/6 79/79/6 20/41/6
f 57/112/6 26/77/6 79/79/6
f 49/52/9 1/43/9 79/79/9
f 21/53/9 49/52/9 79/79/9
f 51/88/6 56/78/6 23/86/6
f 12/55/9 37/54/9 51/88/9
f 76/108/7 45/56/7 51/88/7
f 76/108/7 51/88/7 61/87/7
f 39/110/9 81/71/9 13/69/9
f 13/69/9 83/68/9 39/110/9
f 52/67/7 13/69/7 73/95/7
f 50/96/6 13/69/6 71/101/6
f 22/97/9 68/104/9 38/66/9
f 38/66/9 65/98/9 22/97/9
f 84/113/7 38/66/7 43/24/7
f 10/25/6 38/66/6 35/26/6
f 31/22/6 75/89/6 15/23/6
f 64/94/9 28/93/9 75/89/9
f 46/11/7 18/10/7 75/89/7
f 46/11/7 75/89/7 4/12/7
f 74/91/6 40/81/6 63/92/6
f 34/9/7 9/8/7 40/81/7
f 78/109/9 58/82/9 40/81/9
f 40/81/9 42/7/9 78/109/9
f 27/85/1 77/84/1 59/107/1
f 33/58/9 17/57/9 77/84/9
f 30/5/7 2/4/7 77/84/7
f 30/5/7 77/84/7 14/6/7
f 98/114/10 90/115/10 106/116/10 86/117/10 102/118/10 94/119/10 110/120/10 5/121/10 99/122/10 91/123/10 107/124/10 87/125/10 103/126/10 95/127/10 111/128/10 7/129/10 100/130/10 92/131/10 108/132/10 88/133/10 104/134/10 96/135/10 112/136/10 8/137/10 113/138/10 97/139/10 105/140/10 89/141/10 109/142/10 93/143/10 101/144/10 6/145/10
