# Blender v2.79 (sub 0) OBJ File: 'Madeira.blend'
# www.blender.org
mtllib Madeira.mtl
o Cube
v 0.443634 -0.500000 -0.443634
v 0.443634 -0.500000 0.443634
v -0.443634 -0.500000 0.443634
v -0.443634 -0.500000 -0.443634
v 0.444388 0.500000 -0.444387
v 0.444387 0.500000 0.444388
v -0.444388 0.500000 0.444387
v -0.444388 0.500000 -0.444388
v 0.500001 0.500000 -0.499999
v 0.499999 0.500000 0.500001
v -0.500000 0.500000 -0.500000
v -0.500000 0.500000 0.500000
v 0.500000 -0.500000 -0.500000
v 0.500000 -0.500000 0.500000
v -0.500000 -0.500000 -0.500000
v -0.500000 -0.500000 0.500000
vt 0.758709 0.466807
vt 0.260468 0.471532
vt 0.260468 0.036287
vt 0.758709 0.031563
vt 0.759063 0.465040
vt 0.261708 0.468190
vt 0.261708 0.030682
vt 0.759062 0.027532
vt 0.905247 0.537300
vt 0.536720 0.728374
vt 0.093662 0.918937
vt 0.459039 0.724713
vt 0.946194 0.535180
vt 0.505221 0.702631
vt 0.070038 0.942016
vt 0.511010 0.752517
vt 0.070584 0.943591
vt 0.445410 0.809213
vt 0.927841 0.527306
vt 0.553015 0.682157
vt 0.952011 0.544630
vt 0.583484 0.745153
vt 0.119952 0.948316
vt 0.474304 0.752517
vt 0.618522 0.903580
vt 0.618521 0.607781
vt 0.637030 0.589272
vt 0.637030 0.922088
vt 0.322724 0.903579
vt 0.304215 0.922088
vt 0.322723 0.607782
vt 0.304215 0.589273
vt 0.382275 0.912777
vt 0.677572 0.912777
vt 0.696331 0.931536
vt 0.363516 0.931537
vt 0.677572 0.617481
vt 0.696331 0.598722
vt 0.382275 0.617481
vt 0.363515 0.598721
vn 0.0000 -1.0000 0.0000
vn 0.0000 1.0000 0.0000
vn 1.0000 0.0000 0.0000
vn -0.0000 -0.0000 1.0000
vn -1.0000 -0.0000 -0.0000
vn 0.0000 0.0000 -1.0000
usemtl Material
s off
f 1/1/1 2/2/1 3/3/1 4/4/1
f 5/5/2 8/6/2 7/7/2 6/8/2
f 13/9/3 9/10/3 10/11/3 14/12/3
f 14/13/4 10/14/4 12/15/4 16/16/4
f 16/17/5 12/18/5 11/19/5 15/20/5
f 9/21/6 13/22/6 15/23/6 11/24/6
f 5/25/2 6/26/2 10/27/2 9/28/2
f 8/29/2 5/25/2 9/28/2 11/30/2
f 6/26/2 7/31/2 12/32/2 10/27/2
f 7/31/2 8/29/2 11/30/2 12/32/2
f 2/33/1 1/34/1 13/35/1 14/36/1
f 1/34/1 4/37/1 15/38/1 13/35/1
f 3/39/1 2/33/1 14/36/1 16/40/1
f 4/37/1 3/39/1 16/40/1 15/38/1
